<svg width="49" height="49" viewBox="0 0 49 49" fill="none" xmlns="http://www.w3.org/2000/svg">
<path d="M6.125 24.5C6.125 14.3518 14.3518 6.125 24.5 6.125V6.125C34.6482 6.125 42.875 14.3518 42.875 24.5V24.5C42.875 34.6482 34.6482 42.875 24.5 42.875V42.875C14.3518 42.875 6.125 34.6482 6.125 24.5V24.5Z" fill="#211E1E" fill-opacity="0.25"/>
<path d="M30.8027 26C30.8027 29.3137 28.1164 32 24.8027 32C21.489 32 18.8027 29.3137 18.8027 26C18.8027 22.6863 21.489 20 24.8027 20C28.1164 20 30.8027 22.6863 30.8027 26Z" fill="black"/>
<path fill-rule="evenodd" clip-rule="evenodd" d="M35.2505 39.0528C35.3589 39.1587 35.3449 39.3357 35.2219 39.4242C32.2044 41.5959 28.5016 42.875 24.5 42.875C20.4986 42.875 16.796 41.596 13.7785 39.4245C13.6556 39.336 13.6416 39.159 13.7499 39.0531C16.3694 36.492 20.2146 34.875 24.5004 34.875C28.786 34.875 32.6311 36.4919 35.2505 39.0528Z" fill="black"/>
</svg>
