<svg width="20" height="20" viewBox="0 0 27 24" fill="none" xmlns="http://www.w3.org/2000/svg">
<path d="M3.04115 11.6435C3.453 11.6536 3.73657 11.3017 3.99925 10.9844C4.32475 10.5911 4.76828 10.1358 4.77208 9.62534C4.77347 9.43947 4.79707 9.25482 4.84844 9.07109C4.95138 8.70797 5.14143 8.3658 5.28396 8.00967C5.31564 7.92588 5.36315 7.8351 5.34731 7.7513C5.26813 7.05998 5.60862 6.44548 6.28962 6.11728C6.43215 6.04745 6.47175 5.97762 6.4955 5.85193C6.71722 4.7137 7.89709 4.00143 9.17197 4.21092C9.25908 4.22489 9.38577 4.19696 9.4412 4.14109C10.2918 3.36017 11.2753 3.05174 12.2939 3.21303C13.0324 3.32997 13.77 3.3257 14.5091 3.21236C15.1742 3.10063 15.7285 3.33805 16.1799 3.771C16.2591 3.84781 16.3858 3.90367 16.4966 3.91066C18.3337 4.02238 19.6403 4.9581 20.1392 6.51531C20.1629 6.59212 20.2579 6.6829 20.3371 6.71083C21.319 7.02507 21.81 7.82811 21.5645 8.71495C21.5487 8.78478 21.5249 8.87556 21.5645 8.93143C21.7253 9.19081 21.8259 9.45876 21.873 9.73697C21.9519 10.203 22.3462 10.5922 22.6609 10.9448C22.6781 10.9641 22.6944 10.9842 22.7097 11.0051C22.9344 11.3119 23.2035 11.6478 23.5837 11.6478C24.2727 11.6478 24.5656 11.8573 24.7003 12.4439C25.3496 15.3418 25.991 18.2467 26.6324 21.1447C26.8224 21.9966 26.2048 22.66 25.215 22.66C22.198 22.66 19.181 22.66 16.1641 22.66C15.9978 22.66 15.8869 22.7159 15.7523 22.8066C15.4989 22.9812 15.2217 23.1488 14.9208 23.2326C13.836 23.5468 12.7353 23.5398 11.6584 23.2047C11.3575 23.1139 11.1041 22.8904 10.819 22.7438C10.724 22.6949 10.5973 22.66 10.4865 22.66C7.56451 22.653 4.64256 22.66 1.72061 22.66C1.63351 22.66 1.54641 22.66 1.4593 22.66C0.469483 22.653 -0.156083 22.0036 0.0339625 21.1517C0.683284 18.2118 1.33261 15.272 1.98193 12.3321C2.07695 11.8992 2.41745 11.6618 2.93215 11.6408C2.96883 11.6417 3.00512 11.6426 3.04115 11.6435ZM13.8043 19.783C13.8043 19.9298 13.9451 20.0357 14.0868 19.9972C15.6161 19.5817 17.1474 19.3714 18.7138 19.378C20.9783 19.378 23.0897 17.4507 22.6704 15.2255C22.4621 14.1201 22.2536 13.0145 22.0442 11.9035C21.993 11.6319 21.6844 11.3204 21.4695 11.4942C21.3428 11.5919 21.2636 11.7595 21.2082 11.9132C20.9865 12.5696 20.5905 13.1282 20.0046 13.5751C19.882 13.6724 19.8365 13.8368 19.9042 13.9779C20.0031 14.1838 20.0977 14.3786 20.155 14.5807C20.2104 14.7902 20.2263 15.0346 20.1629 15.2441C19.8937 16.1728 18.603 16.4661 17.8428 15.7748C17.4944 15.4605 17.0984 15.2441 16.6312 15.0974C16.2987 14.9927 15.9661 14.8809 15.681 14.7133C15.396 14.5527 15.0555 14.3572 14.9446 14.1058C14.7387 13.6449 14.3745 13.5262 13.8914 13.5053C13.7885 13.4983 13.6697 13.5193 13.5905 13.5681C12.1889 14.5108 10.3518 14.2385 9.39369 12.9327C9.32242 12.8349 9.25908 12.807 9.12446 12.8279C8.4593 12.9536 7.80998 12.8978 7.18442 12.6883C6.47966 12.4578 5.90161 12.0808 5.47401 11.5291C5.29188 11.2917 5.06224 11.4313 4.85636 11.4523C4.79301 11.4593 4.70591 11.564 4.69007 11.6338C4.55546 12.3112 4.43668 12.9955 4.30206 13.6729C3.98532 15.3977 3.65274 17.1225 3.32808 18.8543C3.22803 19.4131 3.74968 19.89 4.30472 19.7708C7.07862 19.1752 9.82959 19.248 12.5963 19.9893C12.7417 20.0283 12.8858 19.9196 12.8858 19.769C12.8858 18.2956 12.8858 16.8222 12.8858 15.3488C12.8858 15.2859 12.8858 15.2231 12.8858 15.1603C12.9016 14.8809 13.0758 14.7133 13.3371 14.7133C13.6143 14.7133 13.7964 14.8809 13.8043 15.1742C13.8043 15.2371 13.8043 15.2999 13.8043 15.3628C13.8043 16.8362 13.8043 18.3096 13.8043 19.783ZM7.94938 5.19979C7.51395 5.47737 7.85606 5.94742 8.28917 6.22861C8.37167 6.28218 8.44962 6.34268 8.52265 6.41057C8.79188 6.66195 8.83147 6.89938 8.62559 7.08093C8.40817 7.27267 8.18314 7.24281 7.89822 6.99136C7.88698 6.98144 7.87745 6.96936 7.86621 6.95944C7.85394 6.9486 7.84319 6.93569 7.83047 6.92538C7.33813 6.52649 6.55569 6.69018 6.31337 7.24853C6.155 7.62561 6.2817 7.95381 6.71722 8.26106C6.93102 8.41468 6.97853 8.65909 6.82808 8.83366C6.67763 9.00126 6.41632 9.03617 6.1946 8.91048C6.04275 8.82121 5.84672 8.85919 5.78721 9.02497C5.51223 9.79102 5.80627 10.7792 6.52718 11.3964C7.14203 11.9259 8.23926 12.2164 8.85306 12.0445C8.95234 12.0167 9.00344 11.9145 8.98545 11.8129C8.96789 11.7138 8.89298 11.6336 8.79503 11.6104C8.75932 11.6019 8.72413 11.5934 8.68894 11.585C8.06338 11.4174 7.59618 10.8867 7.58826 10.321C7.58034 10.0487 7.7308 9.88111 7.99211 9.86016C8.27718 9.83921 8.45138 9.97887 8.49098 10.2582C8.50964 10.3899 8.54787 10.4957 8.61142 10.5795C8.81795 10.8517 9.20138 10.6157 9.38577 10.328C9.55998 10.0836 9.92424 10.0627 10.1222 10.2791C10.2647 10.4398 10.2489 10.6073 10.138 10.7749C9.89256 11.159 9.82921 11.564 9.94799 11.99C10.1222 12.6324 10.5815 13.0584 11.3021 13.2399C12.0227 13.4215 12.6641 13.2539 13.1867 12.793C13.3846 12.6254 13.5747 12.5416 13.8439 12.6324C14.5487 12.8698 15.2693 12.8629 15.9978 12.7022C16.0849 12.6813 16.172 12.6603 16.2512 12.6743C16.457 12.7092 16.5996 12.821 16.6233 13.0165C16.6471 13.2329 16.5441 13.3796 16.3066 13.4424C16.2664 13.4529 16.2263 13.4629 16.1856 13.4727C15.952 13.5287 15.8588 13.8654 16.077 13.9662C16.3462 14.1058 16.6471 14.2036 16.9322 14.3223C17.2885 14.4689 17.6527 14.6086 17.9853 14.7832C18.1754 14.8809 18.3179 15.0555 18.4842 15.1882C18.6584 15.3278 18.8564 15.3628 19.0702 15.265C19.276 15.1742 19.3631 15.0066 19.3077 14.8181C19.2508 14.6424 19.1693 14.474 19.0869 14.3049C19.0311 14.1907 18.9004 14.1306 18.7772 14.1617C18.5871 14.2036 18.405 14.2594 18.215 14.2944C17.9457 14.3432 17.7161 14.2176 17.6527 13.9941C17.5973 13.7846 17.7319 13.5821 18.0012 13.5262C18.5238 13.4215 19.0068 13.2539 19.4186 12.9397C19.5095 12.8728 19.5908 12.7975 19.6727 12.7208C19.7347 12.6628 19.7087 12.5659 19.6245 12.5765C18.8405 12.6953 18.1199 12.5765 17.4706 12.1646C17.336 12.0808 17.2172 12.0458 17.043 12.0808C16.3937 12.2274 15.7127 11.969 15.3643 11.4593C15.1901 11.2009 15.2217 10.9844 15.4514 10.8448C15.681 10.7051 15.9186 10.768 16.1245 11.0124C16.362 11.2987 16.7104 11.3894 17.0193 11.2428C17.3202 11.1031 17.431 10.8168 17.3043 10.4817C17.2093 10.2163 17.2964 10.0068 17.5419 9.92301C17.7953 9.83223 18.0408 9.94396 18.1595 10.2163C18.4642 10.9042 18.5587 11.8781 19.3061 11.7923C19.6805 11.7494 20.0495 11.6128 20.3451 11.3894C20.9109 10.9636 21.1533 10.1321 20.8941 9.66195C20.8724 9.62258 20.8193 9.60694 20.7806 9.62973C20.4084 9.83223 20.155 9.82525 19.9887 9.60878C19.8145 9.38532 19.9016 9.19678 20.2817 8.95936C20.6143 8.74987 20.7568 8.46357 20.6776 8.10743C20.6064 7.75828 20.3609 7.54879 19.9729 7.45801C19.6878 7.38819 19.4423 7.465 19.1969 7.59069C18.9435 7.72337 18.6901 7.68147 18.5475 7.48595C18.3971 7.28344 18.4525 7.06697 18.7217 6.90636C18.8168 6.85049 18.9118 6.79463 19.0227 6.7667C19.2206 6.71782 19.2444 6.61307 19.1573 6.47341C19.0227 6.24297 18.9197 5.9846 18.7455 5.77511C18.3687 5.31694 17.8931 5.00761 17.3186 4.84188C16.9237 4.72792 16.5668 5.17043 16.1561 5.18854C15.8631 5.20251 15.7048 5.04888 15.6652 4.69973C15.6177 4.31567 15.2613 4.00143 14.8417 3.9735C14.3586 3.93859 13.931 4.19696 13.8202 4.58801C13.7964 4.67878 13.8043 4.77655 13.7806 4.86733C13.7251 5.09078 13.5351 5.21647 13.2817 5.19553C13.0521 5.17458 12.8779 5 12.8779 4.77655C12.8779 4.6718 12.8858 4.55309 12.9333 4.45533C13.0125 4.29472 12.9174 4.23187 12.7749 4.17601C12.2523 3.95255 11.7138 3.90367 11.1595 4.0573C10.4073 4.26679 9.91632 4.70672 9.67876 5.3701C9.58374 5.64244 9.33826 5.76813 9.07695 5.69132C8.83147 5.62149 8.72853 5.412 8.80772 5.13966C8.83359 5.05981 8.77432 4.97852 8.69042 4.97593C8.44321 4.9683 8.17487 5.05604 7.94938 5.19979ZM17.0907 20.2669C16.4192 20.3355 15.9489 20.9457 15.9898 21.6195C15.9978 21.815 16.0928 21.8569 16.2987 21.8569C19.2523 21.85 22.2138 21.8569 25.1674 21.85C25.6742 21.85 25.8247 21.6754 25.7297 21.2355C25.2308 18.9799 24.7319 16.7244 24.2331 14.4689C24.1043 13.9012 23.9813 13.3283 23.8592 12.7591C23.8232 12.5915 23.6751 12.4718 23.5037 12.4718C23.4415 12.4718 23.3799 12.4718 23.3178 12.4718C23.2017 12.4718 23.1035 12.5729 23.1165 12.6883C23.4254 14.3083 23.7263 15.9284 24.0351 17.5415C24.1855 18.3236 24.3439 19.0987 24.4785 19.8808C24.5973 20.5651 24.0034 21.026 23.267 20.8235C21.3032 20.2788 19.2998 20.0902 17.2568 20.2509C17.2012 20.2559 17.1459 20.2613 17.0907 20.2669ZM3.18282 12.4788C3.01371 12.4788 2.87465 12.5965 2.83836 12.7617C2.43147 14.6137 2.02457 16.4477 1.61767 18.2817C1.39595 19.2872 1.17423 20.2858 0.952515 21.2913C0.889166 21.5846 1.00003 21.7941 1.26926 21.843C1.3722 21.8639 1.48306 21.8569 1.586 21.8569C4.50795 21.8569 7.42989 21.8569 10.3518 21.8569C10.4073 21.8569 10.4706 21.8709 10.5102 21.85C10.5815 21.815 10.6844 21.7662 10.6923 21.7103C10.7745 20.9858 10.2253 20.3301 9.49897 20.2666C9.20922 20.2412 8.92074 20.2201 8.63351 20.209C6.88351 20.1391 5.16518 20.3556 3.48645 20.8095C2.67084 21.0329 2.08487 20.5511 2.23532 19.8109C2.28283 19.5665 2.33034 19.3221 2.37785 19.0777C2.70251 17.3529 3.02718 15.6281 3.35975 13.9033C3.4212 13.5733 3.48264 13.2398 3.54408 12.9028C3.58435 12.682 3.40732 12.4788 3.18282 12.4788ZM12.957 20.9701C12.3269 20.7367 11.6667 21.2141 11.5838 21.8809C11.5773 21.9336 11.5705 21.9861 11.5634 22.0385C11.5396 22.234 11.6109 22.3248 11.793 22.3946C12.2998 22.5971 12.8383 22.646 13.3846 22.646C13.9073 22.646 14.422 22.5971 14.8971 22.3877C14.9921 22.3458 15.1267 22.241 15.1267 22.1712C15.1203 22.0664 15.1126 21.9615 15.1039 21.8564C15.0494 21.199 14.3723 20.7257 13.7568 20.9631C13.4797 21.0679 13.2342 21.0748 12.957 20.9701Z" fill="black"/>
<path d="M9.82019 2.16854C9.60547 2.307 9.26083 2.23673 9.14054 2.01132C8.94258 1.66218 8.78421 1.29208 8.62584 0.921978C8.5229 0.684557 8.63376 0.461101 8.86339 0.377305C9.10887 0.293509 9.34643 0.384288 9.4652 0.62171C9.63941 0.984825 9.81362 1.34794 9.97199 1.71106C10.0417 1.89105 9.97994 2.06552 9.82019 2.16854Z" fill="black"/>
<path d="M17.526 2.04623C17.4167 2.26651 17.0694 2.3039 16.8638 2.16901C16.7093 2.0676 16.6456 1.90402 16.7104 1.74596C16.8766 1.35491 17.0588 0.970847 17.2488 0.586782C17.3518 0.377292 17.6052 0.307462 17.8269 0.391258C18.0486 0.468071 18.1674 0.677561 18.0803 0.894034C17.914 1.28508 17.7398 1.66915 17.526 2.04623Z" fill="black"/>
<path d="M4.36565 6.24291C4.62762 6.35162 4.68781 6.77958 4.4441 6.92466C4.32671 6.99455 4.1797 7.01326 4.02516 6.96215C3.58964 6.82249 3.16203 6.66189 2.73443 6.49429C2.50479 6.40351 2.42561 6.18006 2.52063 5.98453C2.61565 5.78901 2.84529 5.68427 3.08285 5.76806C3.51837 5.91471 3.94597 6.06135 4.36565 6.24291Z" fill="black"/>
<path d="M24.0708 5.86828C24.2543 6.04543 24.1551 6.39337 23.924 6.50126C23.5202 6.67584 23.1084 6.8155 22.6887 6.96214C22.4353 7.05292 22.1899 6.95516 22.0869 6.75963C21.984 6.55014 22.079 6.32669 22.3403 6.22893C22.76 6.06832 23.1797 5.91469 23.6073 5.77503C23.7795 5.71509 23.9543 5.75577 24.0708 5.86828Z" fill="black"/>
<path d="M21.3635 2.85793C21.5013 2.98014 21.5519 3.23519 21.4222 3.36594C21.2479 3.54052 21.0658 3.70811 20.8679 3.85475C20.6778 3.99441 20.4403 3.96648 20.274 3.81286C20.1156 3.66621 20.0998 3.44276 20.2581 3.28913C20.4165 3.12852 20.5828 2.95395 20.7808 2.84222C20.9075 2.77239 21.1213 2.75144 21.2638 2.80032C21.3006 2.81046 21.3334 2.8312 21.3635 2.85793Z" fill="black"/>
<path d="M6.40876 3.77914C6.2604 3.92514 5.98627 3.99245 5.83016 3.85478C5.63219 3.70116 5.43423 3.54055 5.26794 3.36597C5.10957 3.19838 5.14124 2.98889 5.31545 2.84225C5.47382 2.70957 5.72722 2.68862 5.89351 2.81432C6.09147 2.96794 6.29735 3.12157 6.43989 3.31011C6.51115 3.40089 6.52699 3.58943 6.47156 3.69417C6.45715 3.72504 6.43524 3.75308 6.40876 3.77914Z" fill="black"/>
<path d="M13.8045 0.614722C13.8045 0.663603 13.8045 0.705501 13.8045 0.754382C13.7886 1.02672 13.6065 1.20129 13.3452 1.20129C13.0839 1.20129 12.8938 1.0337 12.878 0.761365C12.8701 0.635671 12.8701 0.51696 12.8859 0.391266C12.9097 0.153845 13.1156 -0.00676394 13.3531 0.000219046C13.5828 0.00720204 13.7649 0.160828 13.7966 0.384284C13.8124 0.461096 13.8045 0.537909 13.8045 0.614722Z" fill="black"/>
<path d="M12.2209 10.8099C12.7737 10.7818 12.7191 10.1335 12.2324 9.86986C12.1622 9.83187 12.0924 9.79378 12.0229 9.75545C11.9279 9.69958 11.8487 9.62277 11.7853 9.53898C11.6586 9.37138 11.6666 9.20379 11.817 9.05017C11.9595 8.90352 12.205 8.87559 12.3951 8.98034C12.4584 9.01525 12.5138 9.07112 12.5772 9.12C13.5987 9.95796 15.2141 9.55294 15.5783 8.36583C15.5862 8.33092 15.6021 8.28902 15.6179 8.2541C15.705 8.01668 15.9347 7.89797 16.1881 7.9678C16.4177 8.02367 16.5523 8.24014 16.489 8.47058C16.2276 9.4063 15.5783 10.0208 14.5252 10.2862C14.351 10.3281 14.2559 10.3979 14.1688 10.5445C13.7729 11.2079 13.1394 11.5571 12.2921 11.6129C11.9754 11.6339 11.7457 11.4872 11.722 11.2428C11.6982 11.0054 11.9041 10.8238 12.2209 10.8099Z" fill="black"/>
<path d="M11.7929 6.36868C12.1413 6.3617 12.3313 6.48739 12.3472 6.73878C12.363 6.99017 12.1888 7.1438 11.8483 7.16475C11.2307 7.20664 10.811 7.57674 10.7476 8.13538C10.708 8.49151 10.4309 8.68005 10.1142 8.56134C9.90035 8.48453 9.82117 8.3309 9.82117 8.13538C9.84492 7.19966 10.7397 6.39662 11.7929 6.36868Z" fill="black"/>
</svg>
