<svg width="20" height="20" viewBox="0 0 24 20" fill="none" xmlns="http://www.w3.org/2000/svg">
<path d="M17.4894 0C17.6599 0.105072 17.7765 0.245168 17.7047 0.450933C17.6285 0.656699 17.449 0.682967 17.2472 0.682967C12.192 0.678589 7.14126 0.678589 2.08606 0.682967C1.16653 0.682967 0.695545 1.13828 0.695545 2.03577C0.695545 4.19849 0.695545 6.36122 0.695545 8.52833C0.695545 9.14562 1.03196 9.60093 1.60611 9.73665C1.75413 9.77168 1.91113 9.77168 2.06812 9.77168C4.01933 9.77168 5.97502 9.77606 7.92623 9.77168C8.63495 9.7673 9.20012 10.0168 9.63971 10.5641C10.2408 11.3171 10.8598 12.0526 11.4698 12.7969C11.7883 13.1865 12.0215 13.1865 12.34 12.8012C12.959 12.0439 13.5825 11.2908 14.197 10.5334C14.6142 10.0168 15.1614 9.77168 15.8298 9.77168C17.8079 9.77168 19.7815 9.75417 21.7596 9.78043C22.6164 9.79357 23.1277 9.20254 23.1232 8.44077C23.1008 6.29993 23.1143 4.15909 23.1143 2.01825C23.1143 1.15141 22.6388 0.687345 21.7507 0.687345C20.7952 0.687345 19.8443 0.682967 18.8889 0.691723C18.687 0.691723 18.5076 0.669833 18.4314 0.459689C18.3641 0.245168 18.4807 0.10945 18.6512 0C19.8443 0 21.0375 0 22.2306 0C22.28 0.017512 22.3293 0.0350239 22.3786 0.0481579C22.9483 0.205766 23.3789 0.534115 23.6301 1.05947C23.7019 1.2127 23.7512 1.37907 23.8095 1.54105C23.8095 3.99273 23.8095 6.4444 23.8095 8.89608C23.6974 9.29448 23.5449 9.67536 23.2129 9.9468C23.0784 10.0562 23.0425 10.1745 23.0425 10.3364C23.047 12.4685 23.047 14.6006 23.047 16.7327C23.047 17.6258 23.047 18.5189 23.0515 19.4076C23.0515 19.4821 23.0784 19.6003 23.1232 19.6222C23.4776 19.771 23.657 20.06 23.8095 20.3796C23.8095 20.8174 23.8095 21.2551 23.8095 21.6973C23.7916 21.7455 23.7692 21.7936 23.7557 21.8462C23.5359 22.6649 22.8003 23.2384 21.9435 23.2384C16.2604 23.2428 10.5817 23.2384 4.89849 23.2384C4.62936 23.2384 4.46788 23.107 4.46788 22.9013C4.46788 22.6911 4.62936 22.5642 4.89849 22.5598C4.96129 22.5598 5.02409 22.5598 5.0824 22.5598C10.6176 22.5598 16.1482 22.5598 21.6834 22.5598C21.7686 22.5598 21.8538 22.5642 21.9391 22.5598C22.5177 22.5335 22.9797 22.1658 23.0739 21.6054C23.1187 21.3383 23.1053 21.0625 23.1098 20.7911C23.1143 20.3708 22.9752 20.2395 22.5401 20.2395C20.091 20.2395 17.6419 20.2395 15.1928 20.2395C14.964 20.2395 14.6725 20.1738 14.52 20.2832C14.3764 20.3839 14.3809 20.6773 14.3226 20.8874C14.1746 21.4128 13.7574 21.7324 13.2057 21.7367C12.3355 21.7411 11.4698 21.7411 10.5996 21.7367C10.0479 21.7367 9.63074 21.4128 9.4872 20.8874C9.44683 20.7342 9.393 20.5809 9.37057 20.4277C9.34815 20.2745 9.27638 20.2351 9.12387 20.2351C6.48189 20.2395 3.83991 20.2395 1.19344 20.2395C0.852539 20.2395 0.700031 20.3927 0.695545 20.7254C0.691059 20.9224 0.695545 21.1194 0.695545 21.3164C0.700031 22.0607 1.20241 22.5554 1.96047 22.5598C2.42696 22.5642 2.88897 22.5598 3.35547 22.5598C3.62909 22.5598 3.77711 22.6868 3.77262 22.9057C3.76814 23.1158 3.6246 23.2384 3.36444 23.2384C2.86206 23.2384 2.35519 23.2428 1.85281 23.2384C0.978134 23.2296 0.206621 22.6342 0.0496275 21.7893C-0.0176555 21.4215 0.00477215 21.0362 0.000286614 20.6597C-0.00868446 20.2263 0.193165 19.898 0.574435 19.6966C0.722458 19.6178 0.762828 19.5346 0.762828 19.3814C0.758343 16.3562 0.762828 13.331 0.753857 10.3058C0.753857 10.1963 0.691059 10.0606 0.61032 9.98182C0.233535 9.60969 0.00477215 9.17627 0.000286614 8.65091C0.000286614 6.37436 0.000286614 4.0978 0.000286614 1.82124C0.000286614 1.42285 0.134853 1.06823 0.372586 0.744259C0.673117 0.337105 1.10373 0.13134 1.5792 0C6.8811 0 12.1875 0 17.4894 0ZM3.02802 19.5346C8.96239 19.5346 14.8698 19.5346 20.7773 19.5346C20.7773 16.505 20.7773 13.493 20.7773 10.4634C20.6831 10.4634 20.6068 10.4634 20.5306 10.4634C18.9741 10.4634 17.4176 10.4722 15.8567 10.459C15.3633 10.4546 14.9999 10.6385 14.6994 11.0106C14.0849 11.7812 13.4569 12.5386 12.8289 13.296C12.3131 13.9264 11.4967 13.9264 10.9809 13.296C10.3529 12.5298 9.71596 11.7637 9.09696 10.9931C8.80091 10.6254 8.43758 10.4546 7.95315 10.459C6.39666 10.4678 4.84018 10.4634 3.27921 10.4634C3.19848 10.4634 3.11325 10.4722 3.02354 10.4765C3.02802 13.5061 3.02802 16.5138 3.02802 19.5346ZM1.48949 19.5521C1.69133 19.5521 1.87076 19.539 2.04569 19.5565C2.26548 19.5784 2.31482 19.4908 2.31482 19.2894C2.31034 16.4394 2.31034 13.5893 2.31034 10.7392C2.31034 10.656 2.31034 10.5772 2.31034 10.4809C2.02326 10.4678 1.7631 10.4503 1.49397 10.4371C1.48949 13.4755 1.48949 16.4963 1.48949 19.5521ZM22.3203 19.539C22.3203 16.4919 22.3203 13.4711 22.3203 10.4328C22.0467 10.4503 21.7865 10.4634 21.5264 10.4765C21.5264 13.5061 21.5264 16.5182 21.5264 19.5346C21.7955 19.539 22.0512 19.539 22.3203 19.539ZM13.7529 20.2482C12.5194 20.2482 11.2949 20.2482 10.0569 20.2482C10.0838 20.3533 10.1062 20.4452 10.1331 20.5415C10.2497 20.9925 10.3305 21.0581 10.797 21.0581C11.4608 21.0581 12.1292 21.0581 12.793 21.0581C13.569 21.0581 13.6004 21.0362 13.7529 20.2482Z" fill="black"/>
<path d="M10.1421 5.37187C10.4695 5.24491 10.7835 5.17486 11.1244 5.25804C11.9049 5.44629 12.3669 6.22995 12.1247 6.97421C11.8825 7.72285 11.0437 8.12125 10.2991 7.82792C10.1645 7.77539 10.0793 7.7535 9.95368 7.85857C9.88191 7.91548 9.68903 7.92862 9.61726 7.87608C9.51858 7.80165 9.42438 7.6528 9.4199 7.53022C9.39747 6.97859 9.41092 6.42696 9.41092 5.87534C9.41092 5.46818 9.41092 5.06103 9.41092 4.65388C9.41092 4.39558 9.54998 4.23359 9.7608 4.22921C9.97162 4.22483 10.1062 4.38682 10.1152 4.64512C10.1196 4.87278 10.1196 5.09605 10.1241 5.32371C10.1241 5.33247 10.1286 5.34122 10.1421 5.37187ZM10.8104 7.23251C11.1917 7.22814 11.4832 6.93919 11.4788 6.56706C11.4743 6.20369 11.1648 5.90161 10.797 5.90598C10.4336 5.91036 10.1196 6.2212 10.1196 6.57582C10.1241 6.94357 10.4336 7.23689 10.8104 7.23251Z" fill="black"/>
<path d="M3.55735 7.69218C2.8576 7.91546 2.30139 7.77099 1.94704 7.28503C1.62408 6.8341 1.63305 6.24745 1.97395 5.80527C2.32831 5.34558 2.89797 5.20986 3.55286 5.43752C3.58426 5.39812 3.61566 5.32807 3.66051 5.31056C3.77714 5.26678 3.91619 5.20111 4.01487 5.23175C4.11355 5.2624 4.2212 5.39374 4.24363 5.49881C4.284 5.68706 4.26157 5.88845 4.26157 6.08546C4.26157 6.54515 4.26157 7.00922 4.26157 7.46891C4.26157 7.66154 4.23466 7.83228 4.01936 7.90671C3.84891 7.968 3.73228 7.91546 3.55735 7.69218ZM3.55735 6.56704C3.55735 6.2562 3.29718 6.00228 2.9832 6.00666C2.67369 6.01104 2.42699 6.2562 2.42699 6.56266C2.42699 6.8735 2.68715 7.1318 3.00114 7.12742C3.30616 7.11429 3.55286 6.86474 3.55735 6.56704Z" fill="black"/>
<path d="M12.4657 4.22909C12.672 4.22909 12.8335 4.22472 12.9905 4.22909C13.2327 4.23347 13.3987 4.37795 13.3987 4.57496C13.3987 4.76321 13.2507 4.91206 13.0129 4.91644C12.6092 4.92519 12.2055 4.93395 11.8063 4.91206C11.452 4.89455 11.3084 4.6056 11.5148 4.31665C11.7794 3.94452 12.062 3.58553 12.3311 3.2134C12.4119 3.10395 12.4792 2.98574 12.542 2.86316C12.6182 2.70993 12.5913 2.56984 12.4298 2.49979C12.2683 2.42974 12.1248 2.47352 12.053 2.64864C12.0396 2.67491 12.0306 2.70555 12.0171 2.73182C11.9274 2.92007 11.748 2.99888 11.5596 2.93321C11.3937 2.87192 11.3129 2.70118 11.3578 2.50417C11.4834 1.98318 12.0396 1.66359 12.5778 1.81244C13.1027 1.95692 13.4166 2.50417 13.2327 3.00763C13.1565 3.21778 13.0309 3.41479 12.9098 3.60304C12.7842 3.80881 12.6362 3.99268 12.4657 4.22909Z" fill="black"/>
<path d="M20.2706 4.22921C20.4904 4.22921 20.6518 4.22483 20.8133 4.22921C21.0421 4.23797 21.1991 4.37806 21.2036 4.5707C21.208 4.76333 21.0645 4.91218 20.8268 4.92093C20.4231 4.92969 20.0194 4.93845 19.6202 4.91656C19.2523 4.89904 19.1178 4.60572 19.3331 4.30802C19.5932 3.94464 19.8758 3.59003 20.1405 3.22665C20.2257 3.10845 20.293 2.98148 20.3603 2.85452C20.441 2.70567 20.3872 2.57871 20.2436 2.51304C20.0956 2.44299 19.9521 2.47802 19.8713 2.63562C19.8489 2.67503 19.8399 2.72318 19.822 2.76258C19.7368 2.93333 19.5484 3.01651 19.3779 2.94646C19.1985 2.87203 19.1178 2.73632 19.1581 2.54369C19.2658 2.0227 19.822 1.68998 20.3603 1.82132C20.9075 1.95703 21.235 2.49991 21.0466 3.01213C20.9613 3.24854 20.8133 3.46744 20.6743 3.68634C20.5576 3.85708 20.4186 4.02345 20.2706 4.22921Z" fill="black"/>
<path d="M4.85371 4.22482C5.0735 4.22482 5.24395 4.22044 5.4144 4.22482C5.64765 4.23358 5.7867 4.36929 5.7867 4.57506C5.7867 4.77207 5.65214 4.90341 5.42786 4.90779C5.02416 4.91654 4.62046 4.91654 4.22125 4.90779C3.85792 4.89465 3.7099 4.59695 3.91623 4.30362C4.16742 3.94901 4.44104 3.6119 4.69223 3.25728C4.79091 3.12157 4.87165 2.97709 4.94791 2.82824C5.01967 2.67939 4.95688 2.55681 4.80885 2.49551C4.64738 2.42547 4.52178 2.48676 4.44553 2.63561C4.43207 2.66188 4.43207 2.69252 4.41861 2.72317C4.3289 2.9158 4.15397 3.00336 3.96557 2.94207C3.79512 2.88516 3.70093 2.6969 3.75027 2.49551C3.86241 2.02269 4.40964 1.68996 4.89408 1.79504C5.52205 1.93513 5.85399 2.52616 5.59382 3.09968C5.46374 3.38425 5.26189 3.64255 5.08696 3.90961C5.02416 4.00154 4.95239 4.0891 4.85371 4.22482Z" fill="black"/>
<path d="M17.0902 6.59757C17.1261 5.55123 18.252 4.89015 19.1715 5.39362C19.4182 5.52934 19.4989 5.71759 19.3868 5.91022C19.2836 6.0941 19.0952 6.12474 18.8396 6.00216C18.5435 5.86207 18.2385 5.89709 18.0232 6.10723C17.8169 6.30862 17.763 6.60195 17.8886 6.86025C18.0142 7.11417 18.2834 7.27178 18.5704 7.22362C18.6781 7.20611 18.7857 7.14482 18.8755 7.07915C19.0863 6.92154 19.2612 6.91278 19.4092 7.07039C19.5483 7.21486 19.5259 7.42063 19.3554 7.59575C18.7723 8.1824 17.6733 7.97664 17.2786 7.19735C17.1889 7.0091 17.153 6.79458 17.0902 6.59757Z" fill="black"/>
<path d="M7.10093 6.80339C6.93945 6.80339 6.80039 6.80777 6.66583 6.80339C6.43707 6.79025 6.29353 6.65016 6.29801 6.44877C6.3025 6.25614 6.43707 6.13356 6.66134 6.12042C6.72863 6.11604 6.80039 6.12042 6.87216 6.11604C6.93945 6.11167 7.00673 6.10729 7.10093 6.10291C7.10093 5.95406 7.09196 5.82272 7.10093 5.687C7.11438 5.45935 7.26241 5.31487 7.45977 5.31925C7.65713 5.32363 7.79618 5.4681 7.81413 5.69576C7.8231 5.82272 7.81413 5.94968 7.81413 6.11604C7.95318 6.11604 8.0698 6.11604 8.19091 6.11604C8.4735 6.12042 8.61704 6.23863 8.61704 6.45753C8.61704 6.67643 8.46453 6.79901 8.1954 6.80777C8.07877 6.80777 7.96663 6.80777 7.81413 6.80777C7.81413 6.93911 7.81861 7.05731 7.81413 7.17114C7.80516 7.4382 7.68405 7.58705 7.46425 7.59143C7.23549 7.59581 7.10541 7.44258 7.10093 7.16238C7.09644 7.04856 7.10093 6.93911 7.10093 6.80339Z" fill="black"/>
<path d="M15.1792 5.60381C15.4349 5.60381 15.6906 5.59944 15.9418 5.60381C16.1974 5.61257 16.341 5.74391 16.3365 5.95405C16.332 6.15982 16.184 6.29554 15.9328 6.29991C15.4214 6.30429 14.9146 6.30429 14.4032 6.29991C14.152 6.29554 14.0085 6.15982 14.0085 5.94967C14.0085 5.73953 14.1475 5.61695 14.4077 5.60819C14.6679 5.59944 14.9235 5.60381 15.1792 5.60381Z" fill="black"/>
<path d="M15.1749 7.30692C14.9192 7.30692 14.6635 7.31129 14.4078 7.30692C14.1567 7.30254 14.0131 7.1712 14.0131 6.95668C14.0176 6.75091 14.1567 6.62833 14.3944 6.62395C14.9147 6.61957 15.4306 6.61957 15.9509 6.62395C16.1886 6.62395 16.3321 6.75529 16.3366 6.95668C16.3411 7.15807 16.1931 7.29816 15.9643 7.30254C15.6997 7.31129 15.4395 7.30692 15.1749 7.30692Z" fill="black"/>
<path d="M11.4563 16.4744C10.8283 16.4744 10.2003 16.4744 9.57233 16.4744C9.09686 16.4744 8.8053 16.1942 8.79633 15.7301C8.79185 15.4806 8.79185 15.2311 8.79633 14.9815C8.80979 14.5875 9.07892 14.2942 9.47813 14.2942C10.7969 14.2854 12.1111 14.2854 13.4299 14.2942C13.8291 14.2985 14.0982 14.5875 14.1117 14.9815C14.1207 15.2398 14.1207 15.4937 14.1117 15.752C14.1027 16.1855 13.8022 16.47 13.3581 16.47C12.7257 16.4788 12.0932 16.4744 11.4563 16.4744ZM9.51402 15.7739C10.8238 15.7739 12.1111 15.7739 13.403 15.7739C13.403 15.5025 13.403 15.2486 13.403 14.9859C12.1022 14.9859 10.8148 14.9859 9.51402 14.9859C9.51402 15.2529 9.51402 15.5069 9.51402 15.7739Z" fill="black"/>
</svg>
