<svg width="131" height="52" viewBox="0 0 131 52" fill="none" xmlns="http://www.w3.org/2000/svg">
<g filter="url(#filter0_d_29_640)">
<rect x="2" y="1" width="127" height="48" rx="24" fill="white"/>
<rect x="2.5" y="1.5" width="126" height="47" rx="23.5" stroke="white"/>
<path d="M31.536 30.14C30.7427 30.14 30.01 30.042 29.338 29.846C28.6753 29.6407 28.106 29.3607 27.63 29.006L28.19 27.592C28.5073 27.816 28.8387 28.0073 29.184 28.166C29.5293 28.3153 29.898 28.432 30.29 28.516C30.682 28.5907 31.0973 28.628 31.536 28.628C32.2733 28.628 32.8053 28.5067 33.132 28.264C33.4587 28.0213 33.622 27.704 33.622 27.312C33.622 26.9667 33.51 26.7053 33.286 26.528C33.062 26.3413 32.6607 26.1873 32.082 26.066L30.5 25.744C29.5947 25.5573 28.918 25.2447 28.47 24.806C28.022 24.3673 27.798 23.7793 27.798 23.042C27.798 22.426 27.9613 21.8893 28.288 21.432C28.6147 20.9747 29.072 20.62 29.66 20.368C30.248 20.116 30.934 19.99 31.718 19.99C32.418 19.99 33.0667 20.0927 33.664 20.298C34.2613 20.494 34.7607 20.7787 35.162 21.152L34.602 22.496C34.2007 22.16 33.762 21.9127 33.286 21.754C32.81 21.586 32.278 21.502 31.69 21.502C31.0273 21.502 30.5093 21.6327 30.136 21.894C29.772 22.146 29.59 22.496 29.59 22.944C29.59 23.2893 29.702 23.5647 29.926 23.77C30.1593 23.9753 30.5513 24.134 31.102 24.246L32.67 24.554C33.6033 24.7407 34.294 25.0487 34.742 25.478C35.19 25.898 35.414 26.4673 35.414 27.186C35.414 27.774 35.2553 28.292 34.938 28.74C34.6207 29.1787 34.1727 29.524 33.594 29.776C33.0153 30.0187 32.3293 30.14 31.536 30.14ZM36.9754 30V22.93H38.7254V30H36.9754ZM36.8774 21.6V19.892H38.8234V21.6H36.8774ZM43.9018 33.136C43.2485 33.136 42.6558 33.066 42.1238 32.926C41.6012 32.786 41.1345 32.5713 40.7238 32.282L41.1018 31.022C41.3725 31.1993 41.6525 31.344 41.9418 31.456C42.2312 31.568 42.5298 31.652 42.8378 31.708C43.1458 31.764 43.4585 31.792 43.7758 31.792C44.4292 31.792 44.9145 31.6287 45.2318 31.302C45.5585 30.9847 45.7218 30.5273 45.7218 29.93V28.236H45.8618C45.7125 28.7213 45.4092 29.1087 44.9518 29.398C44.5038 29.6873 43.9858 29.832 43.3978 29.832C42.7632 29.832 42.2078 29.692 41.7318 29.412C41.2652 29.1227 40.9012 28.712 40.6398 28.18C40.3785 27.648 40.2478 27.0227 40.2478 26.304C40.2478 25.5853 40.3785 24.9647 40.6398 24.442C40.9012 23.91 41.2652 23.504 41.7318 23.224C42.2078 22.9347 42.7632 22.79 43.3978 22.79C43.9952 22.79 44.5132 22.9347 44.9518 23.224C45.3998 23.504 45.6985 23.8867 45.8478 24.372L45.7218 24.288L45.8618 22.93H47.5558C47.5185 23.2193 47.4905 23.5133 47.4718 23.812C47.4532 24.1107 47.4438 24.4047 47.4438 24.694V29.72C47.4438 30.8307 47.1405 31.6753 46.5338 32.254C45.9365 32.842 45.0592 33.136 43.9018 33.136ZM43.8738 28.488C44.4338 28.488 44.8772 28.3013 45.2038 27.928C45.5398 27.5453 45.7078 27.004 45.7078 26.304C45.7078 25.604 45.5398 25.0673 45.2038 24.694C44.8772 24.3207 44.4338 24.134 43.8738 24.134C43.3045 24.134 42.8518 24.3207 42.5158 24.694C42.1798 25.0673 42.0118 25.604 42.0118 26.304C42.0118 27.004 42.1798 27.5453 42.5158 27.928C42.8518 28.3013 43.3045 28.488 43.8738 28.488ZM49.3348 30V24.694C49.3348 24.4047 49.3255 24.1107 49.3068 23.812C49.2881 23.5133 49.2601 23.2193 49.2228 22.93H50.9168L51.0568 24.33H50.8888C51.1128 23.8353 51.4441 23.4573 51.8828 23.196C52.3215 22.9253 52.8301 22.79 53.4088 22.79C54.2395 22.79 54.8648 23.0233 55.2848 23.49C55.7048 23.9567 55.9148 24.6847 55.9148 25.674V30H54.1648V25.758C54.1648 25.1887 54.0528 24.7827 53.8288 24.54C53.6141 24.288 53.2875 24.162 52.8488 24.162C52.3075 24.162 51.8781 24.33 51.5608 24.666C51.2435 25.002 51.0848 25.45 51.0848 26.01V30H49.3348ZM65.8682 30.14C64.4588 30.14 63.4088 29.79 62.7182 29.09C62.0368 28.3807 61.6962 27.3353 61.6962 25.954V20.13H63.5022V25.94C63.5022 26.8173 63.6888 27.48 64.0622 27.928C64.4448 28.376 65.0468 28.6 65.8682 28.6C66.6522 28.6 67.2402 28.376 67.6322 27.928C68.0335 27.48 68.2342 26.8173 68.2342 25.94V20.13H70.0122V25.954C70.0122 27.3353 69.6622 28.3807 68.9622 29.09C68.2715 29.79 67.2402 30.14 65.8682 30.14ZM71.9754 33.024V24.694C71.9754 24.4047 71.9661 24.1107 71.9474 23.812C71.9288 23.5133 71.9008 23.2193 71.8634 22.93H73.5574L73.711424.414H73.5574C73.6974 23.9193 73.9914 23.5273 74.4394 23.238C74.8968 22.9393 75.4241 22.79 76.0214 22.79C76.6468 22.79 77.1928 22.9393 77.6594 23.238C78.1261 23.5273 78.4901 23.9473 78.7514 24.498C79.0128 25.0393 79.1434 25.6927 79.1434 26.458C79.1434 27.2233 79.0128 27.8813 78.7514 28.432C78.4901 28.9827 78.1261 29.4073 77.6594 29.706C77.1928 29.9953 76.6468 30.14 76.0214 30.14C75.4334 30.14 74.9154 29.9953 74.4674 29.706C74.0194 29.4167 73.7208 29.0293 73.5714 28.544H73.7254V33.024H71.9754ZM75.5314 28.796C76.0914 28.796 76.5394 28.6047 76.8754 28.222C77.2114 27.83 77.3794 27.242 77.3794 26.458C77.3794 25.674 77.2114 25.0907 76.8754 24.708C76.5394 24.3253 76.0914 24.134 75.5314 24.134C74.9808 24.134 74.5374 24.3253 74.2014 24.708C73.8654 25.0907 73.6974 25.674 73.6974 26.458C73.6974 27.242 73.8654 27.83 74.2014 28.222C74.5374 28.6047 74.9808 28.796 75.5314 28.796Z" fill="#968FE5"/>
<ellipse cx="8" cy="8" rx="8" ry="8" transform="matrix(4.37114e-08 -1 -1 -4.37114e-08 110 33)" fill="#7E869E" fill-opacity="0.25"/>
<path d="M93.7 25C93.7 20.416 97.416 16.7 102 16.7C106.584 16.7 110.3 20.416 110.3 25C110.3 29.584 106.584 33.3 102 33.3C97.416 33.3 93.7 29.584 93.7 25Z" stroke="#7E869E" stroke-opacity="0.25" stroke-width="0.6"/>
<path d="M92.9289 32.0711C94.3275 33.4696 96.1093 34.422 98.0491 34.8079C99.9889 35.1937 102 34.9957 103.827 34.2388C105.654 33.4819 107.216 32.2002 108.315 30.5557C109.414 28.9112 110 26.9778 110 25C110 23.0222 109.414 21.0888 108.315 19.4443C107.216 17.7998 105.654 16.5181 103.827 15.7612C102 15.0043 99.9889 14.8063 98.0491 15.1921C96.1093 15.578 94.3275 16.5304 92.9289 17.9289" stroke="#968FE5" stroke-width="1.2"/>
<path d="M103 25L103.469 24.6252L103.768 25L103.469 25.3748L103 25ZM91 25.6C90.6686 25.6 90.4 25.3314 90.4 25C90.4 24.6686 90.6686 24.4 91 24.4V25.6ZM99.4685 19.6252L103.469 24.6252L102.531 25.3748L98.5315 20.3748L99.4685 19.6252ZM103.469 25.3748L99.4685 30.3748L98.5315 29.6252L102.531 24.6252L103.469 25.3748ZM103 25.6H91V24.4H103V25.6Z" fill="#968FE5"/>
</g>
<defs>
<filter id="filter0_d_29_640" x="0" y="0" width="131" height="52" filterUnits="userSpaceOnUse" color-interpolation-filters="sRGB">
<feFlood flood-opacity="0" result="BackgroundImageFix"/>
<feColorMatrix in="SourceAlpha" type="matrix" values="0 0 0 0 0 0 0 0 0 0 0 0 0 0 0 0 0 0 127 0" result="hardAlpha"/>
<feOffset dy="1"/>
<feGaussianBlur stdDeviation="1"/>
<feColorMatrix type="matrix" values="0 0 0 0 0.776471 0 0 0 0 0.894118 0 0 0 0 0.964706 0 0 0 0.05 0"/>
<feBlend mode="normal" in2="BackgroundImageFix" result="effect1_dropShadow_29_640"/>
<feBlend mode="normal" in="SourceGraphic" in2="effect1_dropShadow_29_640" result="shape"/>
</filter>
</defs>
</svg>