<svg width="32" height="31" viewBox="0 0 32 31" fill="none" xmlns="http://www.w3.org/2000/svg">
<path d="M13.8287 8.56062C14.8447 6.02766 15.3527 4.76118 16.2263 4.76118C17.0999 4.76118 17.6079 6.02766 18.624 8.56062L18.6713 8.67857C19.2453 10.1096 19.5323 10.8251 20.1172 11.26C20.7022 11.6948 21.47 11.7636 23.0057 11.9011L23.2833 11.926C25.7966 12.1511 27.0533 12.2636 27.3222 13.0632C27.5911 13.8627 26.6579 14.7117 24.7913 16.4099L24.1684 16.9766C23.2235 17.8363 22.7511 18.2661 22.5309 18.8294C22.4898 18.9345 22.4557 19.0422 22.4287 19.1517C22.2839 19.739 22.4223 20.3625 22.699 21.6096L22.7851 21.9977C23.2936 24.2896 23.5478 25.4355 23.1039 25.9298C22.938 26.1145 22.7225 26.2475 22.483 26.3128C21.842 26.4877 20.9321 25.7462 19.1122 24.2633C17.9172 23.2895 17.3197 22.8026 16.6337 22.6931C16.3638 22.65 16.0889 22.65 15.819 22.6931C15.133 22.8026 14.5355 23.2895 13.3405 24.2633C11.5206 25.7462 10.6106 26.4877 9.96972 26.3128C9.73022 26.2475 9.51463 26.1145 9.34875 25.9298C8.90483 25.4355 9.15908 24.2896 9.66757 21.9977L9.75369 21.6096C10.0304 20.3625 10.1687 19.739 10.024 19.1517C9.99699 19.0422 9.96284 18.9345 9.92177 18.8294C9.70157 18.2661 9.22914 17.8363 8.28428 16.9766L7.66133 16.4099C5.79481 14.7118 4.86156 13.8627 5.13045 13.0632C5.39935 12.2636 6.65602 12.1511 9.16937 11.926L9.44699 11.9011C10.9827 11.7636 11.7505 11.6948 12.3354 11.26C12.9204 10.8251 13.2074 10.1096 13.7814 8.67857L13.8287 8.56062Z" stroke="#222222"/>
</svg>
