<svg width="18" height="18" viewBox="0 0 18 18" fill="none" xmlns="http://www.w3.org/2000/svg">
<path d="M8.70117 0.0667953C8.64492 0.101952 6.7043 1.94414 4.39453 4.1625C1.05117 7.36875 0.172266 8.22656 0.0984375 8.3707C0.0175781 8.51836 0 8.5957 0 8.80312C0 9.11602 0.101953 9.35508 0.319922 9.53789C0.558984 9.7418 0.713672 9.77344 1.53633 9.77344H2.25V13.4473C2.25 17.0824 2.25 17.1211 2.32383 17.3145C2.42227 17.5746 2.67539 17.8277 2.93555 17.9262C3.12539 17.9965 3.19219 18 4.95 18C6.69023 18 6.77109 17.9965 6.86953 17.9297C6.9293 17.8945 7.01016 17.8031 7.05586 17.7293L7.13672 17.5957V15.0609C7.13672 12.9305 7.14375 12.5191 7.18594 12.4594C7.23516 12.3961 7.29492 12.3926 9 12.3926C10.7051 12.3926 10.7648 12.3961 10.8141 12.4594C10.8562 12.5191 10.8633 12.9305 10.8633 15.0574V17.5852L10.9406 17.7258C10.9828 17.7996 11.0707 17.8945 11.1305 17.9332C11.2395 18 11.3027 18 13.1027 17.993L14.959 17.9824L15.1348 17.8945C15.3738 17.7785 15.5883 17.5465 15.6762 17.3109C15.75 17.1211 15.75 17.0684 15.75 13.4473V9.78047L16.534 9.76641C17.3953 9.75234 17.4516 9.7418 17.7012 9.52383C18.007 9.25312 18.0984 8.73633 17.9051 8.3707C17.8277 8.22656 16.9523 7.37226 13.6055 4.1625C11.2957 1.94414 9.35859 0.101952 9.29883 0.0667953C9.15469 -0.0246105 8.84531 -0.0246105 8.70117 0.0667953Z" fill="#1C092C"/>
</svg>
