<svg width="46" height="45" viewBox="0 0 46 45" fill="none" xmlns="http://www.w3.org/2000/svg">
<path d="M18.085 18.7505C18.085 17.2664 16.111 16.873 15.5873 18.2617C14.3205 21.6208 13.3975 24.6258 13.3975 26.2504C13.3975 31.4281 17.5948 35.6254 22.7725 35.6254C27.9501 35.6254 32.1475 31.4281 32.1475 26.2504C32.1475 24.5049 31.082 21.1662 29.6695 17.5068C27.8398 12.7665 26.9249 10.3963 25.7956 10.2686C25.4342 10.2278 25.04 10.3012 24.7176 10.4695C23.71 10.9952 23.71 13.5803 23.71 18.7505C23.71 20.3038 22.4508 21.563 20.8975 21.563C19.3442 21.563 18.085 20.3038 18.085 18.7505Z" stroke="#222222"/>
</svg>
