<svg width="20" height="18" viewBox="0 0 20 18" fill="none" xmlns="http://www.w3.org/2000/svg">
<path fill-rule="evenodd" clip-rule="evenodd" d="M5.13053 0.0102396C3.70027 0.15982 2.53588 0.733253 1.59996 1.74901C0.0640434 3.41596 -0.419749 6.02415 0.383326 8.30793C0.661785 9.09971 1.20924 10.0518 1.85535 10.8678C2.28096 11.4054 3.12482 12.3191 3.66844 12.831C4.87863 13.9706 9.16699 17.7228 9.46289 17.9009C9.60745 17.988 9.67268 18 9.99896 18C10.4425 18 10.5364 17.9553 11.056 17.4963C11.2381 17.3354 12.0734 16.6078 12.9122 15.8793C16.1569 13.0613 17.203 12.0566 18.1808 10.8196C19.859 8.69674 20.3787 6.457 19.7291 4.14773C19.2921 2.59409 18.2274 1.26784 16.8548 0.567263C16.4853 0.378682 15.8376 0.163625 15.3918 0.0815026C14.8833 -0.0121935 13.9253 -0.0141752 13.4721 0.0774995C12.1583 0.343289 11.0721 1.05616 10.1065 2.28661L9.99896 2.42363L9.89143 2.28661C8.93057 1.06226 7.82432 0.333856 6.54715 0.0845544C6.22462 0.0216148 5.42369 -0.0203979 5.13053 0.0102396ZM6.52556 1.28806C7.59501 1.57485 8.43958 2.23195 9.22901 3.3915C9.54489 3.85554 9.69164 3.96482 9.99896 3.96482C10.3063 3.96482 10.453 3.85554 10.7689 3.3915C11.7503 1.94999 12.8483 1.2531 14.2428 1.18675C16.4505 1.08168 18.2943 2.65311 18.7399 5.01969C18.8298 5.49689 18.8575 6.29116 18.7997 6.73353C18.5501 8.64355 17.427 10.2696 14.5741 12.8517C13.7902 13.5612 10.0302 16.8308 9.99826 16.8308C9.96631 16.8308 6.20905 13.5626 5.42381 12.8518C2.57017 10.2686 1.44785 8.64355 1.19825 6.73353C1.14045 6.29116 1.16814 5.49689 1.258 5.01969C1.63516 3.01672 2.98013 1.59499 4.83823 1.23515C5.25441 1.15453 6.13003 1.182 6.52556 1.28806Z" fill="black"/>
</svg>
