<svg width="49" height="49" viewBox="0 0 49 49" fill="none" xmlns="http://www.w3.org/2000/svg">
<path d="M6.125 24.5C6.125 14.3518 14.3518 6.125 24.5 6.125C34.6482 6.125 42.875 14.3518 42.875 24.5C42.875 34.6482 34.6482 42.875 24.5 42.875C14.3518 42.875 6.125 34.6482 6.125 24.5Z" fill="#7E869E" fill-opacity="0.25"/>
<circle cx="24.4997" cy="20.4167" r="8.16667" fill="#030303"/>
<path fill-rule="evenodd" clip-rule="evenodd" d="M37.3021 37.4236C37.3587 37.5209 37.341 37.6439 37.26 37.7221C33.9548 40.9125 29.4566 42.875 24.5 42.875C19.5434 42.875 15.0453 40.9125 11.7401 37.7222C11.6591 37.6441 11.6414 37.5211 11.698 37.4237C14.0381 33.3939 18.8918 30.625 24.5001 30.625C30.1083 30.625 34.962 33.3938 37.3021 37.4236Z" fill="#030303"/>
</svg>
