<svg width="18" height="18" viewBox="0 0 18 18" fill="none" xmlns="http://www.w3.org/2000/svg">
<path d="M7.59375 0.130079L7.44609 0.263672L7.17891 1.35703L6.91172 2.45039L6.5918 2.56641C6.41953 2.62969 6.15234 2.74219 6.00469 2.81602L5.73398 2.95312L4.87969 2.43633L4.02539 1.91602H3.79688C3.50508 1.91602 3.51562 1.90899 2.56289 2.87227C1.78594 3.65273 1.72266 3.74766 1.77187 4.01484C1.78242 4.08164 2.03203 4.53516 2.32383 5.02383L2.85469 5.91328L2.73164 6.18398C2.66484 6.33164 2.57344 6.55313 2.53125 6.67969L2.45039 6.9082L1.35703 7.17891L0.263672 7.44609L0.133594 7.59727L0 7.74492V9V10.2551L0.133594 10.4062L0.263672 10.5539L1.35703 10.8211L2.45391 11.0883L2.53125 11.3203C2.57695 11.4469 2.68242 11.7 2.7668 11.8898L2.925 12.2273L2.48555 12.9621C1.91953 13.9043 1.91953 13.9078 1.95117 14.1188C1.97578 14.2875 2.00039 14.3156 2.80547 15.1242C3.25898 15.5848 3.68789 15.9855 3.75469 16.0172C3.99023 16.1297 4.11328 16.084 4.98867 15.5602L5.79023 15.0785L6.07148 15.2156C6.22969 15.293 6.4793 15.3984 6.63398 15.4512L6.91172 15.5496L7.17891 16.643L7.44609 17.7363L7.59375 17.8699L7.74492 18H9H10.2551L10.4062 17.8664L10.5539 17.7363L10.8211 16.643L11.0883 15.5496L11.4082 15.4336C11.5805 15.3703 11.8301 15.2648 11.9602 15.2016C12.0902 15.1348 12.2168 15.082 12.2379 15.082C12.259 15.082 12.6035 15.2789 13.0008 15.518C13.4016 15.757 13.7777 15.9785 13.841 16.0102C13.9922 16.084 14.1504 16.0805 14.3262 15.9961C14.4984 15.9117 16.0102 14.407 16.0629 14.2629C16.084 14.2066 16.1016 14.0941 16.1016 14.0133C16.1016 13.8797 16.0383 13.7531 15.5988 13.0184L15.0961 12.1781L15.2227 11.9109C15.2965 11.7633 15.3984 11.5172 15.4512 11.366L15.5496 11.0883L16.643 10.8211L17.7363 10.5539L17.8699 10.4062L18 10.2551V9V7.74492L17.8699 7.59375L17.7363 7.44609L16.643 7.17891L15.5496 6.91172L15.4512 6.63398C15.3984 6.4793 15.293 6.22969 15.2156 6.075L15.082 5.79375L15.5777 4.97109C15.8484 4.51758 16.0805 4.09219 16.091 4.02539C16.1402 3.72656 16.1191 3.69844 15.2473 2.82305C14.8008 2.37305 14.3859 1.98281 14.3227 1.95117C14.2629 1.92305 14.1398 1.89844 14.052 1.89844C13.9148 1.89844 13.8023 1.95469 13.0465 2.4082L12.1992 2.91445L11.9215 2.78086C11.7703 2.70703 11.5207 2.60156 11.366 2.54883L11.0883 2.45039L10.8211 1.35703L10.5539 0.263672L10.4062 0.130079L10.2551 0H9H7.74492L7.59375 0.130079ZM9.89648 5.43867C10.9301 5.72695 11.7668 6.39141 12.2414 7.29844C12.4312 7.66758 12.5227 7.92773 12.6035 8.32852C12.6844 8.71875 12.6598 9.53438 12.5578 9.89648C12.273 10.9266 11.6086 11.7668 10.7016 12.2414C10.0652 12.5719 9.60469 12.6738 8.86289 12.6457C7.9875 12.6141 7.30547 12.3539 6.64102 11.7984C6.01172 11.2711 5.56523 10.5117 5.39648 9.67148C5.31562 9.28125 5.34023 8.46562 5.44219 8.10352C5.82539 6.71133 6.88008 5.71289 8.29688 5.39648C8.62734 5.32266 9.56602 5.34727 9.89648 5.43867Z" fill="black"/>
</svg>
